<svg width="348" height="354" viewBox="0 0 348 354" fill="none" xmlns="http://www.w3.org/2000/svg">
<path d="M16.1262 159.262C14.044 159.914 11.8268 160.006 9.69779 159.528C7.56879 159.051 5.60326 158.021 3.99919 156.541C2.39513 155.062 1.20919 153.187 0.560825 151.103C-0.0875411 149.02 -0.17543 146.803 0.306018 144.674C7.52972 114.622 34.9976 41.128 135.064 10.2165C178.409 -3.17319 219.978 -3.40177 258.564 9.53211C290.308 20.1284 311.381 36.7103 321.461 44.7249C324.022 46.7511 325.673 49.7117 326.052 52.9555C326.43 56.1992 325.504 59.4603 323.478 62.0215C323.453 62.0532 323.427 62.0848 323.402 62.1163C321.321 64.6853 318.314 66.3338 315.03 66.7067C311.745 67.0796 308.445 66.1469 305.841 64.1096C287.578 49.72 232.157 6.00455 142.334 33.7516C54.628 60.8449 30.8034 124.218 24.624 150.145C24.1547 152.287 23.1184 154.263 21.6234 155.867C20.1284 157.471 18.2298 158.644 16.1262 159.262Z" fill="#007A7A"/>
<path d="M288.866 329.481C287.872 329.803 286.842 329.996 285.799 330.058C207.624 334.268 157.885 269.323 155.843 266.615L155.465 265.99C154.218 264.057 124.123 218.268 137.372 181.902C143.458 165.277 156.916 153.608 177.489 147.253C196.621 141.343 212.278 143.091 225.604 152.607C236.53 160.36 243.533 171.921 250.321 183.086C264.437 206.268 273.088 218.063 299.92 211.258C311.702 208.268 317.203 199.057 319.716 191.882C326.482 172.357 320.485 145.739 304.62 125.601C284.122 99.4749 226.76 56.0808 155.986 77.9438C125.762 87.2799 101.028 105.678 84.4639 131.012C70.7418 152.036 62.7646 178.148 62.5897 202.499C62.3143 247.84 99.4738 307.491 99.8262 308.031C100.682 309.399 101.259 310.923 101.526 312.515C101.793 314.107 101.744 315.735 101.381 317.308C101.018 318.881 100.349 320.367 99.4125 321.681C98.4756 322.995 97.289 324.112 95.9204 324.967C95.8825 324.991 95.8444 325.015 95.8061 325.038C93.0023 326.787 89.6231 327.362 86.3984 326.641C83.1736 325.919 80.3622 323.958 78.5711 321.181C76.8939 318.453 37.2155 254.851 37.5351 202.449C37.9801 145.649 72.4965 77.8605 148.689 54.3239C183.907 43.4447 220.918 45.2733 255.747 59.5533C282.742 70.689 307.726 89.1232 324.244 110.173C345.341 137.041 352.774 172.21 343.17 199.66C336.767 217.959 323.511 230.586 305.894 235.101C259.981 246.78 241.994 217.374 228.876 195.924C215.406 173.933 207.955 163.622 184.674 170.814C171.891 174.763 164.015 181.091 160.703 190.182C156.196 202.61 160.467 218.54 164.844 229.707C164.89 229.824 164.935 229.94 164.981 230.057C170.592 244.251 179.35 256.988 190.594 267.309C208.606 283.943 242.045 307.656 284.664 305.369C287.922 305.167 291.127 306.267 293.574 308.428C296.021 310.589 297.51 313.633 297.712 316.891C297.714 316.931 297.717 316.97 297.719 317.009C297.819 319.772 297.006 322.491 295.406 324.745C293.806 327 291.507 328.664 288.866 329.481Z" fill="#007A7A"/>
<path d="M194.068 352.829C192.438 353.333 190.723 353.502 189.027 353.325C187.33 353.147 185.687 352.628 184.197 351.798C145.64 329.952 118.573 300.569 99.0814 259.387L99.0029 259.133C86.7187 231.675 79.3239 189.724 95.6357 154.268C107.678 128.105 130.282 109.716 162.706 99.6997C201.057 87.853 236.765 96.5752 266.073 124.802C279.401 137.83 290.24 153.181 298.057 170.101C299.303 173.145 299.3 176.557 298.05 179.6C296.8 182.642 294.402 185.07 291.375 186.359C288.349 187.647 284.937 187.692 281.877 186.484C278.818 185.276 276.356 182.913 275.026 179.904C268.408 165.783 259.27 152.987 248.06 142.144C225.47 120.652 199.21 114.297 169.918 123.346C144.605 131.165 127.175 144.989 118.252 164.438C105.385 192.431 112.009 227.387 121.623 248.9C138.809 285.323 162.648 311.158 196.584 330.351C197.985 331.142 199.218 332.201 200.21 333.468C201.203 334.735 201.936 336.185 202.368 337.735C202.801 339.285 202.923 340.905 202.729 342.503C202.535 344.101 202.029 345.644 201.238 347.046C201.207 347.102 201.175 347.157 201.143 347.212C199.562 349.897 197.041 351.898 194.068 352.829Z" fill="#007A7A"/>
<path d="M198.129 229.716C206.937 229.716 214.078 222.576 214.078 213.767C214.078 204.959 206.937 197.818 198.129 197.818C189.32 197.818 182.18 204.959 182.18 213.767C182.18 222.576 189.32 229.716 198.129 229.716Z" fill="#007A7A"/>
</svg>
